<svg width="30" height="30" viewBox="0 0 30 30" fill="none" xmlns="http://www.w3.org/2000/svg">
<path d="M15.0013 0.9375C11.1822 0.9375 10.7028 0.954234 9.20288 1.02244C7.70578 1.09106 6.68386 1.32802 5.78977 1.67578C4.86473 2.03494 4.08019 2.51545 3.29859 3.29733C2.5163 4.07906 2.03578 4.86361 1.6755 5.78822C1.32675 6.68259 1.08952 7.70494 1.02216 9.20133C0.955078 10.7014 0.9375 11.1809 0.9375 15.0001C0.9375 18.8194 0.954375 19.2972 1.02244 20.7971C1.09134 22.2942 1.3283 23.3161 1.67578 24.2102C2.03522 25.1353 2.51573 25.9198 3.29761 26.7014C4.07906 27.4837 4.86361 27.9653 5.78794 28.3245C6.68273 28.6723 7.7048 28.9092 9.20161 28.9778C10.7017 29.046 11.1806 29.0628 14.9996 29.0628C18.8191 29.0628 19.2969 29.046 20.7968 28.9778C22.2939 28.9092 23.317 28.6723 24.2118 28.3245C25.1364 27.9653 25.9198 27.4837 26.7011 26.7014C27.4834 25.9198 27.9638 25.1353 28.3242 24.2107C28.6699 23.3161 28.9072 22.2939 28.9776 20.7974C29.0449 19.2975 29.0625 18.8194 29.0625 15.0001C29.0625 11.1809 29.0449 10.7017 28.9776 9.20161C28.9072 7.70452 28.6699 6.68273 28.3242 5.78864C27.9638 4.86361 27.4834 4.07906 26.7011 3.29733C25.919 2.51517 25.1367 2.03466 24.2109 1.67592C23.3145 1.32802 22.292 1.09092 20.7949 1.02244C19.2948 0.954234 18.8173 0.9375 14.9969 0.9375H15.0013ZM13.7397 3.4717C14.1142 3.47114 14.532 3.4717 15.0013 3.4717C18.7561 3.4717 19.201 3.4852 20.6838 3.55256C22.0549 3.61528 22.7991 3.84436 23.2948 4.03688C23.9511 4.29169 24.4189 4.59642 24.9108 5.08875C25.403 5.58094 25.7076 6.04964 25.9631 6.70594C26.1556 7.20094 26.385 7.94513 26.4474 9.31622C26.5148 10.7987 26.5294 11.2439 26.5294 14.9969C26.5294 18.7499 26.5148 19.1953 26.4474 20.6776C26.3847 22.0487 26.1556 22.7929 25.9631 23.288C25.7083 23.9443 25.403 24.4116 24.9108 24.9035C24.4186 25.3957 23.9513 25.7003 23.2948 25.9553C22.7996 26.1486 22.0549 26.3771 20.6838 26.4398C19.2013 26.5072 18.7561 26.5218 15.0013 26.5218C11.2463 26.5218 10.8012 26.5072 9.31889 26.4398C7.9478 26.3766 7.20361 26.1475 6.70748 25.955C6.05133 25.7 5.58248 25.3954 5.0903 24.9032C4.59811 24.411 4.29352 23.9435 4.038 23.2869C3.84548 22.7917 3.61613 22.0476 3.55369 20.6765C3.48633 19.194 3.47283 18.7488 3.47283 14.9934C3.47283 11.2381 3.48633 10.7952 3.55369 9.3127C3.61641 7.94161 3.84548 7.19742 4.038 6.70172C4.29295 6.04542 4.59811 5.57672 5.09044 5.08453C5.58263 4.59234 6.05133 4.28761 6.70762 4.03223C7.20333 3.83888 7.9478 3.61036 9.31889 3.54736C10.6162 3.48872 11.1189 3.47114 13.7397 3.46819V3.4717ZM22.5078 5.80664C21.5762 5.80664 20.8203 6.5618 20.8203 7.49358C20.8203 8.42522 21.5762 9.18108 22.5078 9.18108C23.4395 9.18108 24.1953 8.42522 24.1953 7.49358C24.1953 6.56194 23.4395 5.80608 22.5078 5.80608V5.80664ZM15.0013 7.77834C11.0131 7.77834 7.77961 11.0119 7.77961 15.0001C7.77961 18.9884 11.0131 22.2204 15.0013 22.2204C18.9895 22.2204 22.2219 18.9884 22.2219 15.0001C22.2219 11.012 18.9893 7.77834 15.001 7.77834H15.0013ZM15.0013 10.3125C17.59 10.3125 19.6889 12.4111 19.6889 15.0001C19.6889 17.5889 17.59 19.6877 15.0013 19.6877C12.4124 19.6877 10.3138 17.5889 10.3138 15.0001C10.3138 12.4111 12.4124 10.3125 15.0013 10.3125Z" fill="white"/>
</svg>
